<svg xmlns="http://www.w3.org/2000/svg" width="51.68865mm" height="7.9248mm" viewBox="0 0 183.14875 28.08"><g style="line-height:125%" font-size="40" font-family="sans-serif" letter-spacing="0" word-spacing="0"><path d="M28.16 8.16l-6.4 19.6h-3.52l-4.16-13.8-4.16 13.8H6.4L0 8.16h4L8.2 21.6l4.4-13.44h3.2l4.28 13.44 4.08-13.44h4zM35.4206 4.16h-3.84V.24h3.84v3.92zm0 23.6h-3.84V8.16h3.84v19.6zM57.87374 27.76h-4.48l-5.44-9.36-3.2 3.32v6.04h-3.84V0h3.84v17.08l8.08-8.92h4.6l-6.88 7.56 7.32 12.04zM65.03 4.16h-3.84V.24h3.84v3.92zm0 23.6h-3.84V8.16h3.84v19.6z" fill="#db3e14"/><path d="M77.4431 27.76h-1.4q-2.84 0-4.04-1.28-1.2-1.28-1.2-4.12v-11h-1.88v-3.2h1.88V2.28h3.84v5.88h2.8v3.2h-2.8v10.32q0 1.36.44 1.92.48.56 1.8.56h.56v3.6zM96.55 17.96q0 10.12-8.24 10.12-4.88 0-6.96-3.72-1.28-2.28-1.28-6.4 0-10.12 8.24-10.12t8.24 10.12zm-3.84 0q0-6.28-4.4-6.28t-4.4 6.28q0 6.28 4.4 6.28t4.4-6.28z" fill="#ffbc31"/><path d="M107.7881 27.76h-1.4q-2.84 0-4.04-1.28-1.2-1.28-1.2-4.12V0h3.84v21.68q0 1.36.44 1.92.48.56 1.8.56h.56v3.6zM126.42624 19.36h-12.32v.36q0 2.04 1.24 3.28 1.28 1.24 3.32 1.24 2.6 0 4.48-1.88l2.84 2.4q-2.68 3.32-7.16 3.32-4.4 0-6.6-2.8-2-2.56-2-7.08 0-4.4 1.88-7.16 2.16-3.2 6.32-3.2 4.2 0 6.24 2.96 1.76 2.52 1.76 6.88v1.68zm-3.84-3.24q.04-1.96-1.08-3.32-1.12-1.36-3.04-1.36-2.04 0-3.16 1.32-1.08 1.28-1.2 3.36h8.48zM146.15186 27.76h-3.84v-1.88h-.12q-1.16 2.2-5 2.2-2.96 0-4.88-1.44-2.12-1.6-2.12-4.44 0-3.04 2.08-4.6 1.84-1.4 5.04-1.4h5v-1.96q0-1.76-1.36-2.36-.92-.44-2.92-.44-1.84 0-2.8.68-.4.28-.8.84l-3.08-2.28q2.08-2.84 6.76-2.84 8.04 0 8.04 6.04v13.88zm-3.84-6.6v-1.72h-4.96q-3.32 0-3.32 2.44 0 2.6 4.12 2.6 2.08 0 3.04-.64 1.12-.76 1.12-2.68zM164.8931 9.28l-2.8 3.48q-.96-1.04-2.6-1.04-1.72 0-2.8 1.12-1.08 1.08-1.08 2.8v12.12h-3.84V8.16h3.84v2.28q1.88-2.64 5.28-2.64 2.48 0 4 1.48zM183.14874 27.76h-3.84V15.92q0-1.84-1.04-3.04-1-1.2-2.8-1.2-1.64 0-2.76 1.2-1.08 1.16-1.08 2.84v12.04h-3.84V8.16h3.84v2q2.04-2.32 4.96-2.32 3.12 0 4.88 2.12 1.68 1.96 1.68 5.16v12.64z" fill="#69b140"/></g></svg>
